{
    "asset": {
        "generator": "Khronos glTF Blender I/O v3.6.27",
        "version": "2.0"
    },
    "scene": 0,
    "scenes": [
        {
            "name": "Scene",
            "nodes": [
                0
            ]
        }
    ],
    "nodes": [
        {
            "mesh": 0,
            "name": "ukipagtbw_LOD0_TIER1_000",
            "rotation": [
                0.7071068286895752,
                0,
                0,
                0.7071068286895752
            ],
            "scale": [
                0.009999999776482582,
                0.009999999776482582,
                0.009999999776482582
            ]
        }
    ],
    "materials": [
        {
            "doubleSided": true,
            "name": "MI_ukipagtbw",
            "normalTexture": {
                "index": 0
            },
            "occlusionTexture": {
                "index": 1
            },
            "pbrMetallicRoughness": {
                "baseColorTexture": {
                    "index": 2
                },
                "metallicRoughnessTexture": {
                    "index": 1
                }
            }
        }
    ],
    "meshes": [
        {
            "name": "S_ukipagtbw_tier_1",
            "primitives": [
                {
                    "attributes": {
                        "POSITION": 0,
                        "NORMAL": 1,
                        "TEXCOORD_0": 2,
                        "TANGENT": 3
                    },
                    "indices": 4,
                    "material": 0
                }
            ]
        }
    ],
    "textures": [
        {
            "sampler": 0,
            "source": 0
        },
        {
            "sampler": 0,
            "source": 1
        },
        {
            "sampler": 0,
            "source": 2
        },
        {
            "sampler": 0,
            "source": 3
        }
    ],
    "images": [
        {
            "mimeType": "image/png",
            "name": "T_ukipagtbw_4K_N",
            "uri": "textures/T_ukipagtbw_4K_N.png"
        },
        {
            "mimeType": "image/png",
            "name": "T_ukipagtbw_4K_ORM",
            "uri": "textures/T_ukipagtbw_4K_ORM.png",
            "extras": {
                "compression": "mask"
            }
        },
        {
            "mimeType": "image/png",
            "name": "T_ukipagtbw_4K_B",
            "uri": "textures/T_ukipagtbw_4K_B.png"
        },
        {
            "mimeType": "image/png",
            "name": "T_ukipagtbw_4K_H",
            "uri": "textures/T_ukipagtbw_4K_H.png",
            "extras": {
                "textureSlot": "HeightTexture",
                "compression": "displacement"
            }
        }
    ],
    "accessors": [
        {
            "bufferView": 0,
            "componentType": 5126,
            "count": 10393,
            "max": [
                26.01578140258789,
                24.87336540222168,
                0.2915458679199219
            ],
            "min": [
                -26.025615692138672,
                -24.87336540222168,
                -86.47132110595703
            ],
            "type": "VEC3"
        },
        {
            "bufferView": 1,
            "componentType": 5126,
            "count": 10393,
            "type": "VEC3"
        },
        {
            "bufferView": 2,
            "componentType": 5126,
            "count": 10393,
            "type": "VEC2"
        },
        {
            "bufferView": 3,
            "componentType": 5126,
            "count": 10393,
            "type": "VEC4"
        },
        {
            "bufferView": 4,
            "componentType": 5123,
            "count": 56598,
            "type": "SCALAR"
        }
    ],
    "bufferViews": [
        {
            "buffer": 0,
            "byteLength": 124716,
            "byteOffset": 0,
            "target": 34962
        },
        {
            "buffer": 0,
            "byteLength": 124716,
            "byteOffset": 124716,
            "target": 34962
        },
        {
            "buffer": 0,
            "byteLength": 83144,
            "byteOffset": 249432,
            "target": 34962
        },
        {
            "buffer": 0,
            "byteLength": 166288,
            "byteOffset": 332576,
            "target": 34962
        },
        {
            "buffer": 0,
            "byteLength": 113196,
            "byteOffset": 498864,
            "target": 34963
        }
    ],
    "samplers": [
        {
            "magFilter": 9729,
            "minFilter": 9987
        }
    ],
    "buffers": [
        {
            "byteLength": 612060,
            "uri": "ukipagtbw_tier_1.bin"
        }
    ]
}
